<?xml version="1.0" encoding="UTF-8"?>
<svg width="64px" height="64px" viewBox="0 0 64 64" version="1.1" xmlns="http://www.w3.org/2000/svg" xmlns:xlink="http://www.w3.org/1999/xlink">
    <!-- Generator: Sketch 50.2 (55047) - http://www.bohemiancoding.com/sketch -->
    <title>Dashboard-1</title>
    <desc>Created with Sketch.</desc>
    <defs></defs>
    <g id="Dashboard-1" stroke="none" stroke-width="1" fill="none" fill-rule="evenodd">
        <g id="Group-17" transform="translate(8.000000, 8.000000)" fill="#4488E6">
            <path d="M46.545,39.999 C46.545,40.802 45.893,41.454 45.09,41.454 L2.909,41.454 C2.107,41.454 1.454,40.802 1.454,39.999 L1.454,37.09 L46.545,37.09 L46.545,39.999 Z M16.97,46.546 L31.03,46.546 L31.03,42.908 L16.97,42.908 L16.97,46.546 Z M1.454,2.909 C1.454,2.107 2.107,1.455 2.909,1.455 L45.09,1.455 C45.893,1.455 46.545,2.107 46.545,2.909 L46.545,35.636 L42.181,35.636 L42.181,18.571 C42.181,18.17 41.856,17.845 41.454,17.845 C41.053,17.845 40.727,18.17 40.727,18.571 L40.727,35.636 L36.364,35.636 L36.364,25.116 C36.364,24.715 36.038,24.39 35.636,24.39 C35.235,24.39 34.909,24.715 34.909,25.116 L34.909,35.636 L30.546,35.636 L30.546,21.481 C30.546,21.079 30.22,20.753 29.818,20.753 C29.416,20.753 29.091,21.079 29.091,21.481 L29.091,35.636 L24.727,35.636 L24.727,22.936 C24.727,22.534 24.402,22.207 24,22.207 C23.598,22.207 23.273,22.534 23.273,22.936 L23.273,35.636 L18.909,35.636 L18.909,29.482 C18.909,29.079 18.584,28.754 18.181,28.754 C17.78,28.754 17.454,29.079 17.454,29.482 L17.454,35.636 L13.091,35.636 L13.091,27.299 C13.091,26.898 12.765,26.572 12.364,26.572 C11.962,26.572 11.636,26.898 11.636,27.299 L11.636,35.636 L7.273,35.636 L7.273,32.391 C7.273,31.989 6.947,31.664 6.546,31.664 C6.143,31.664 5.818,31.989 5.818,32.391 L5.818,35.636 L1.454,35.636 L1.454,2.909 Z M45.09,0 L2.909,0 C1.304,0 0,1.304 0,2.909 L0,39.999 C0,41.605 1.304,42.908 2.909,42.908 L15.515,42.908 L15.515,46.546 L9.455,46.546 C9.052,46.546 8.727,46.871 8.727,47.273 C8.727,47.675 9.052,48 9.455,48 L38.546,48 C38.947,48 39.272,47.675 39.272,47.273 C39.272,46.871 38.947,46.546 38.546,46.546 L32.485,46.546 L32.485,42.908 L45.09,42.908 C46.695,42.908 48,41.605 48,39.999 L48,2.909 C48,1.304 46.695,0 45.09,0 Z" id="Fill-128"></path>
            <path d="M6.546,28.027 C6.716,28.027 6.886,27.969 7.024,27.847 L12.515,23.042 L17.926,25.071 C18.208,25.177 18.525,25.098 18.725,24.873 L24.394,18.495 L29.694,17.17 L35.251,20.643 C35.551,20.83 35.944,20.774 36.179,20.51 L41.998,13.963 C42.265,13.663 42.238,13.203 41.938,12.937 C41.637,12.668 41.177,12.694 40.911,12.996 L35.5,19.084 L30.203,15.773 C30.036,15.667 29.833,15.635 29.642,15.685 L23.824,17.139 C23.682,17.174 23.554,17.252 23.456,17.36 L17.969,23.533 L12.619,21.526 C12.368,21.433 12.086,21.483 11.885,21.661 L6.067,26.753 C5.764,27.017 5.733,27.477 5.998,27.778 C6.142,27.943 6.342,28.027 6.546,28.027" id="Fill-129"></path>
            <path d="M7.999,17.571 L15.425,17.571 L17.213,19.358 C17.355,19.5 17.541,19.57 17.727,19.57 C17.913,19.57 18.099,19.5 18.241,19.358 C18.525,19.074 18.525,18.614 18.241,18.33 L16.24,16.329 C16.104,16.192 15.92,16.116 15.726,16.116 L7.999,16.116 C7.597,16.116 7.272,16.441 7.272,16.843 C7.272,17.246 7.597,17.571 7.999,17.571" id="Fill-130"></path>
            <path d="M7.999,13.934 L11.088,13.934 C11.49,13.934 11.815,13.608 11.815,13.206 C11.815,12.805 11.49,12.48 11.088,12.48 L7.999,12.48 C7.597,12.48 7.272,12.805 7.272,13.206 C7.272,13.608 7.597,13.934 7.999,13.934" id="Fill-131"></path>
            <path d="M7.999,10.298 L15.452,10.298 C15.855,10.298 16.18,9.972 16.18,9.57 C16.18,9.169 15.855,8.844 15.452,8.844 L7.999,8.844 C7.597,8.844 7.272,9.169 7.272,9.57 C7.272,9.972 7.597,10.298 7.999,10.298" id="Fill-132"></path>
            <path d="M25.939,12.934 L33.365,12.934 L35.152,14.721 C35.294,14.862 35.48,14.935 35.666,14.935 C35.852,14.935 36.038,14.862 36.18,14.721 C36.464,14.437 36.464,13.977 36.18,13.692 L34.18,11.692 C34.044,11.557 33.859,11.479 33.666,11.479 L25.939,11.479 C25.537,11.479 25.211,11.804 25.211,12.207 C25.211,12.608 25.537,12.934 25.939,12.934" id="Fill-133"></path>
            <path d="M25.939,9.298 L31.21,9.298 C31.611,9.298 31.936,8.973 31.936,8.569 C31.936,8.168 31.611,7.843 31.21,7.843 L25.939,7.843 C25.537,7.843 25.211,8.168 25.211,8.569 C25.211,8.973 25.537,9.298 25.939,9.298" id="Fill-134"></path>
            <path d="M25.939,5.66 L33.392,5.66 C33.794,5.66 34.119,5.335 34.119,4.933 C34.119,4.531 33.794,4.206 33.392,4.206 L25.939,4.206 C25.537,4.206 25.211,4.531 25.211,4.933 C25.211,5.335 25.537,5.66 25.939,5.66" id="Fill-135"></path>
        </g>
    </g>
</svg>