<?xml version="1.0" encoding="UTF-8"?>
<svg width="64px" height="64px" viewBox="0 0 64 64" version="1.1" xmlns="http://www.w3.org/2000/svg" xmlns:xlink="http://www.w3.org/1999/xlink">
    <!-- Generator: Sketch 50.2 (55047) - http://www.bohemiancoding.com/sketch -->
    <title>Globe-Points</title>
    <desc>Created with Sketch.</desc>
    <defs></defs>
    <g id="Globe-Points" stroke="none" stroke-width="1" fill="none" fill-rule="evenodd">
        <g id="Group-14" transform="translate(8.000000, 10.000000)" fill="#4488E6" fill-rule="nonzero">
            <path d="M46.353,27.525 C46.756,25.852 46.985,24.113 46.986,22.319 C46.986,22.317 46.986,22.316 46.986,22.314 C46.986,22.313 46.986,22.311 46.986,22.31 C46.985,16.181 44.499,10.623 40.484,6.588 C40.471,6.571 40.465,6.551 40.451,6.536 C40.436,6.521 40.416,6.517 40.401,6.502 C39.755,5.861 39.058,5.275 38.338,4.715 C38.474,4.368 38.556,3.993 38.556,3.598 C38.556,1.895 37.17,0.51 35.467,0.51 C34.502,0.51 33.649,0.964 33.082,1.66 C30.486,0.597 27.652,0.002 24.677,0.002 C24.677,0.002 24.675,0 24.674,0 C24.673,0 24.672,0.002 24.67,0.002 C19.613,0.003 14.948,1.699 11.203,4.545 C10.697,4.182 10.08,3.963 9.411,3.963 C7.708,3.963 6.323,5.348 6.323,7.051 C6.323,7.725 6.546,8.342 6.912,8.851 C4.647,11.833 3.12,15.396 2.588,19.276 C1.123,19.518 0,20.784 0,22.314 C0,23.84 1.115,25.102 2.572,25.351 C3.244,30.27 5.523,34.685 8.865,38.043 C8.878,38.058 8.883,38.077 8.897,38.092 C8.911,38.105 8.93,38.111 8.945,38.122 C12.981,42.139 18.539,44.625 24.667,44.626 C24.669,44.626 24.671,44.628 24.674,44.628 L24.675,44.628 C24.677,44.628 24.679,44.626 24.681,44.626 C30.809,44.625 36.368,42.138 40.403,38.124 C40.418,38.11 40.437,38.104 40.452,38.092 C40.466,38.077 40.471,38.058 40.484,38.042 C41.907,36.612 43.12,34.979 44.115,33.209 C44.371,33.276 44.634,33.325 44.91,33.325 C46.614,33.325 47.999,31.939 47.999,30.237 C47.998,29.058 47.326,28.045 46.353,27.525 Z M45.512,21.588 L37.883,21.588 C37.867,20.948 37.817,20.313 37.751,19.68 C38.864,19.212 39.649,18.113 39.649,16.83 C39.649,15.128 38.263,13.743 36.56,13.743 C36.499,13.743 36.443,13.757 36.384,13.761 C36.092,12.947 35.774,12.142 35.399,11.36 C37.015,10.472 38.526,9.375 39.903,8.086 C43.236,11.651 45.332,16.378 45.512,21.588 Z M36.429,21.588 L25.399,21.588 L25.399,16.366 C26.587,16.077 27.502,15.104 27.708,13.887 C29.938,13.588 32.09,12.959 34.104,12.02 C34.442,12.725 34.729,13.451 34.995,14.184 C34.089,14.723 33.474,15.702 33.474,16.83 C33.474,18.449 34.729,19.765 36.313,19.894 C36.369,20.456 36.414,21.019 36.429,21.588 Z M29.69,28.417 C28.291,28.417 27.121,29.357 26.741,30.635 C26.296,30.594 25.849,30.561 25.398,30.546 L25.398,23.043 L36.422,23.043 C36.306,26.392 35.495,29.639 34.088,32.603 C33.641,32.395 33.185,32.207 32.725,32.03 C32.754,31.859 32.778,31.686 32.778,31.506 C32.778,29.802 31.392,28.417 29.69,28.417 Z M31.323,31.505 C31.323,32.406 30.59,33.139 29.69,33.139 C28.788,33.139 28.056,32.407 28.056,31.505 C28.056,30.605 28.788,29.872 29.69,29.872 C30.59,29.872 31.323,30.604 31.323,31.505 Z M24.672,11.74 C25.573,11.74 26.305,12.472 26.305,13.374 C26.305,14.274 25.573,15.008 24.672,15.008 C23.771,15.008 23.038,14.275 23.038,13.374 C23.038,12.472 23.771,11.74 24.672,11.74 Z M36.561,18.465 C35.66,18.465 34.927,17.732 34.927,16.83 C34.927,15.931 35.66,15.197 36.561,15.197 C37.462,15.197 38.195,15.93 38.195,16.83 C38.195,17.731 37.462,18.465 36.561,18.465 Z M35.465,1.966 C36.366,1.966 37.099,2.698 37.099,3.599 C37.099,4.5 36.366,5.232 35.465,5.232 C34.564,5.232 33.831,4.5 33.831,3.599 C33.831,2.698 34.564,1.966 35.465,1.966 Z M32.438,2.991 C32.398,3.186 32.376,3.39 32.376,3.598 C32.376,5.3 33.762,6.686 35.464,6.686 C36.245,6.686 36.951,6.385 37.495,5.905 C37.97,6.273 38.435,6.649 38.873,7.058 C37.604,8.241 36.213,9.246 34.728,10.067 C32.926,6.801 30.414,3.911 27.331,1.632 C29.118,1.861 30.823,2.336 32.438,2.991 Z M33.433,10.726 C31.593,11.579 29.626,12.135 27.592,12.416 C27.261,11.41 26.437,10.633 25.398,10.38 L25.398,2.049 C28.791,4.292 31.53,7.292 33.433,10.726 Z M23.944,10.381 C22.905,10.634 22.08,11.412 21.75,12.42 C19.721,12.138 17.758,11.581 15.921,10.732 C17.825,7.27 20.559,4.267 23.944,2.044 L23.944,10.381 Z M14.625,10.073 C13.763,9.598 12.944,9.04 12.151,8.441 C12.364,8.02 12.496,7.553 12.496,7.051 C12.496,6.551 12.366,6.085 12.153,5.666 C14.97,3.542 18.33,2.105 21.996,1.633 C18.926,3.897 16.423,6.79 14.625,10.073 Z M6.078,21.588 C5.825,20.55 5.048,19.725 4.042,19.394 C4.545,15.826 5.949,12.55 8.023,9.798 C8.441,10.009 8.907,10.141 9.407,10.141 C10.081,10.141 10.699,9.918 11.208,9.55 C12.087,10.222 12.999,10.841 13.958,11.368 C12.449,14.534 11.583,18.005 11.466,21.588 L6.078,21.588 Z M9.408,5.418 C10.309,5.418 11.041,6.15 11.041,7.052 C11.041,7.952 10.309,8.687 9.408,8.687 C8.507,8.687 7.774,7.953 7.774,7.052 C7.775,6.15 8.508,5.418 9.408,5.418 Z M1.452,22.314 C1.452,21.414 2.185,20.681 3.086,20.681 C3.986,20.681 4.719,21.413 4.719,22.314 C4.719,23.215 3.986,23.948 3.086,23.948 C2.185,23.948 1.452,23.216 1.452,22.314 Z M4.047,25.234 C5.05,24.903 5.825,24.078 6.078,23.043 L11.46,23.043 C11.532,25.87 12.095,28.637 13.083,31.246 C12.397,31.812 11.95,32.659 11.95,33.617 C11.95,33.9 12.001,34.17 12.073,34.431 C11.152,35.064 10.27,35.766 9.44,36.543 C6.584,33.488 4.658,29.57 4.047,25.234 Z M15.038,35.251 C14.138,35.251 13.405,34.517 13.405,33.617 C13.405,32.715 14.138,31.982 15.038,31.982 C15.939,31.982 16.672,32.714 16.672,33.617 C16.672,34.516 15.939,35.251 15.038,35.251 Z M10.469,37.571 C11.201,36.889 11.985,36.285 12.792,35.722 C13.356,36.323 14.151,36.704 15.038,36.704 C15.327,36.704 15.6,36.651 15.865,36.577 C17.517,39.017 19.583,41.2 22.013,42.996 C17.583,42.431 13.583,40.472 10.469,37.571 Z M23.944,42.579 C21.218,40.779 18.926,38.48 17.139,35.867 C17.743,35.304 18.127,34.507 18.127,33.617 C18.127,33.429 18.104,33.248 18.072,33.069 C19.949,32.444 21.918,32.069 23.945,32 L23.945,42.579 L23.944,42.579 Z M23.944,30.546 C21.709,30.617 19.538,31.035 17.472,31.738 C16.907,31.007 16.031,30.528 15.038,30.528 C14.818,30.528 14.604,30.552 14.397,30.596 C13.501,28.19 12.985,25.644 12.915,23.042 L15.933,23.042 C16.262,24.393 17.474,25.401 18.926,25.401 C20.377,25.401 21.589,24.392 21.918,23.042 L23.944,23.042 L23.944,30.546 Z M17.291,22.314 C17.291,21.414 18.024,20.681 18.925,20.681 C19.825,20.681 20.558,21.413 20.558,22.314 C20.558,23.215 19.826,23.948 18.925,23.948 C18.024,23.948 17.291,23.216 17.291,22.314 Z M21.918,21.588 C21.589,20.236 20.376,19.227 18.926,19.227 C17.474,19.227 16.262,20.237 15.933,21.588 L12.921,21.588 C13.037,18.238 13.848,14.99 15.256,12.027 C17.263,12.962 19.411,13.568 21.633,13.868 C21.832,15.095 22.75,16.076 23.944,16.366 L23.944,21.588 L21.918,21.588 Z M25.399,32 C25.822,32.015 26.242,32.047 26.66,32.087 C26.933,33.512 28.186,34.593 29.69,34.593 C30.692,34.593 31.575,34.106 32.14,33.364 C32.573,33.529 33.002,33.704 33.423,33.898 C31.519,37.36 28.784,40.363 25.399,42.585 L25.399,32 Z M27.348,42.995 C30.418,40.73 32.922,37.839 34.719,34.557 C36.208,35.377 37.602,36.386 38.875,37.572 C35.765,40.468 31.772,42.426 27.348,42.995 Z M39.904,36.543 C38.524,35.251 37.007,34.152 35.385,33.262 C36.895,30.096 37.76,26.624 37.878,23.043 L45.513,23.043 C45.464,24.453 45.266,25.827 44.949,27.154 C44.935,27.154 44.923,27.15 44.909,27.15 C43.207,27.15 41.821,28.536 41.821,30.238 C41.821,31.141 42.218,31.949 42.84,32.514 C42.018,33.971 41.039,35.328 39.904,36.543 Z M44.908,31.871 C44.008,31.871 43.275,31.139 43.275,30.238 C43.275,29.337 44.008,28.604 44.908,28.604 C45.809,28.604 46.543,29.336 46.543,30.238 C46.543,31.138 45.81,31.871 44.908,31.871 Z" id="Shape"></path>
        </g>
    </g>
</svg>