<?xml version="1.0" encoding="UTF-8"?>
<svg width="64px" height="64px" viewBox="0 0 64 64" version="1.1" xmlns="http://www.w3.org/2000/svg" xmlns:xlink="http://www.w3.org/1999/xlink">
    <!-- Generator: Sketch 50.2 (55047) - http://www.bohemiancoding.com/sketch -->
    <title>Helicopter</title>
    <desc>Created with Sketch.</desc>
    <defs></defs>
    <g id="Helicopter" stroke="none" stroke-width="1" fill="none" fill-rule="evenodd">
        <g id="Group" transform="translate(8.000000, 11.000000)" fill="#4488E6" fill-rule="nonzero">
            <path d="M21.03,7.833 C21.037,7.834 21.044,7.834 21.051,7.834 C21.444,7.834 21.767,7.522 21.778,7.126 C21.79,6.726 21.473,6.392 21.072,6.38 C12.357,6.135 7.506,4.985 6.744,4.226 C7.655,3.298 14.137,2.031 24.238,2.031 C34.339,2.031 40.821,3.299 41.732,4.226 C40.97,4.986 36.116,6.135 27.396,6.38 C26.995,6.392 26.678,6.726 26.689,7.126 C26.7,7.522 27.023,7.834 27.416,7.834 C27.423,7.834 27.43,7.834 27.437,7.834 C32.189,7.7 43.241,7.083 43.241,4.226 C43.241,0.679 26.184,0.576 24.239,0.576 C22.294,0.576 5.238,0.68 5.238,4.226 C5.236,7.082 16.281,7.7 21.03,7.833 Z" id="Shape"></path>
            <path d="M24.774,24.795 L22.942,24.795 L22.942,22.964 C22.942,22.563 22.616,22.237 22.214,22.237 C21.813,22.237 21.487,22.562 21.487,22.964 L21.487,24.795 L19.656,24.795 C19.255,24.795 18.928,25.122 18.928,25.524 C18.928,25.926 19.254,26.251 19.656,26.251 L21.487,26.251 L21.487,28.082 C21.487,28.484 21.813,28.81 22.214,28.81 C22.616,28.81 22.942,28.485 22.942,28.082 L22.942,26.251 L24.774,26.251 C25.175,26.251 25.501,25.926 25.501,25.524 C25.501,25.122 25.176,24.795 24.774,24.795 Z" id="Shape"></path>
            <path d="M47.943,37.14 C47.657,36.857 47.197,36.859 46.914,37.144 L45.436,38.635 C44.565,39.514 43.356,40.018 42.119,40.018 L38.511,40.018 L38.511,35.417 C43.975,35.163 48.158,32.089 48.158,28.199 C48.158,21.534 38.703,15.604 31.25,15.604 L30.458,15.604 L28.681,13.125 C27.997,12.17 26.888,11.602 25.713,11.602 L24.964,11.602 L24.964,4.226 C24.964,3.826 24.639,3.499 24.237,3.499 C23.836,3.499 23.509,3.825 23.509,4.226 L23.509,11.602 L22.76,11.602 C21.587,11.602 20.477,12.17 19.793,13.125 L18.015,15.604 L10.805,15.604 C10.216,15.604 9.666,15.313 9.335,14.825 L6.688,10.928 C6.281,10.329 5.716,9.857 5.055,9.563 L1.827,8.128 C1.405,7.94 0.924,8.01 0.572,8.312 C0.221,8.614 0.078,9.078 0.2,9.525 L3.25,20.719 C3.534,21.763 4.317,22.588 5.345,22.925 L12.823,25.381 C13.372,25.562 13.78,26.011 13.886,26.556 C14.839,31.454 20.805,35.178 27.911,35.418 L27.911,40.018 L22.044,40.018 C21.642,40.018 21.316,40.343 21.316,40.747 C21.316,41.148 21.642,41.474 22.044,41.474 L28.638,41.474 L37.783,41.474 L42.119,41.474 C43.742,41.474 45.327,40.813 46.47,39.661 L47.948,38.17 C48.231,37.882 48.229,37.422 47.943,37.14 Z M30.085,17.06 L31.251,17.06 C37.541,17.06 45.528,21.753 46.584,27.039 C45.815,27.046 45.044,27.057 44.258,27.074 C38.862,27.192 33.285,27.318 30.179,24.282 C28.544,22.683 27.702,20.307 27.592,17.06 L30.085,17.06 Z M20.976,13.972 C21.388,13.398 22.056,13.056 22.762,13.056 L25.714,13.056 C26.421,13.056 27.088,13.398 27.5,13.972 L28.67,15.605 L19.806,15.605 L20.976,13.972 Z M37.057,40.018 L29.367,40.018 L29.367,35.442 L37.057,35.442 L37.057,40.018 Z M28.639,33.988 C21.898,33.988 16.17,30.675 15.314,26.28 C15.108,25.217 14.327,24.343 13.278,23.999 L5.8,21.544 C5.238,21.359 4.81,20.908 4.654,20.337 L1.752,9.687 L4.465,10.893 C4.878,11.077 5.231,11.372 5.486,11.747 L8.133,15.644 C8.735,16.531 9.734,17.061 10.806,17.061 L18.389,17.061 L26.139,17.061 C26.255,20.724 27.239,23.442 29.162,25.324 C32.034,28.133 36.448,28.578 41.05,28.576 C42.125,28.576 43.211,28.553 44.289,28.529 C45.098,28.51 45.891,28.5 46.68,28.493 C46.444,31.549 42.55,33.989 37.783,33.989 L28.639,33.989 L28.639,33.988 Z" id="Shape"></path>
        </g>
    </g>
</svg>