<svg id="Layer_1" data-name="Layer 1" xmlns="http://www.w3.org/2000/svg" viewBox="0 0 792 218"><defs><style>.cls-1{fill:#f5f5f5;}.cls-2{fill:#fff;}.cls-3{fill:none;}</style></defs><title>logo and title white for Dashboard</title><g id="logo"><polygon class="cls-1" points="171.3 147.5 171.3 48.2 121.6 97.8 171.3 147.5"/><polygon class="cls-2" points="73.3 49.2 75.6 51.4 137 112.8 73.3 176.5 73.3 49.2"/><path class="cls-2" d="M221.4,75.4h9.3V87.7c3.1-4.4,6.4-7.9,9.9-10a28.69,28.69,0,0,1,14.6-4,23.07,23.07,0,0,1,9.9,2,21.78,21.78,0,0,1,7.7,5.4,27.38,27.38,0,0,1,5.1,9.7,34.54,34.54,0,0,1,11.5-12.9,27.46,27.46,0,0,1,14.9-4.3,22.89,22.89,0,0,1,13.2,3.7,22.07,22.07,0,0,1,8.4,10.5c1.9,4.4,2.7,11.2,2.7,20.2v39.1h-9.4V107.9c0-7.6-.6-12.9-1.6-15.8a14.4,14.4,0,0,0-5.7-7,16.74,16.74,0,0,0-9.4-2.6,20,20,0,0,0-12.2,4,22.92,22.92,0,0,0-8.2,10.4c-1.7,4.4-2.6,11.7-2.6,22V147h-9.2V110.2c0-8.6-.6-14.5-1.7-17.6a14.19,14.19,0,0,0-5.6-7.4,16.16,16.16,0,0,0-9.6-2.7,20.62,20.62,0,0,0-11.9,3.9,24.09,24.09,0,0,0-8.3,10.3c-1.7,4.4-2.6,11-2.6,20V147h-9.3V75.4ZM382,73.6c11.2,0,20.3,3.9,27.5,11.9a36.93,36.93,0,0,1,10,25.9c0,9.9-3.6,18.6-10.6,26.2C402,145,393,148.8,382,148.8s-20-3.7-26.9-11.2-10.6-16.3-10.6-26.2a36.69,36.69,0,0,1,10-25.8,35.89,35.89,0,0,1,27.5-12m0,9.1a26.55,26.55,0,0,0-19.8,8.4,28.71,28.71,0,0,0-8.3,20.5,28.42,28.42,0,0,0,3.9,14.5A25.92,25.92,0,0,0,368,136.4a28.16,28.16,0,0,0,14,3.7,27.34,27.34,0,0,0,14-3.7,26.58,26.58,0,0,0,10.2-10.3,28.15,28.15,0,0,0,3.9-14.5,28.71,28.71,0,0,0-8.3-20.5A26.7,26.7,0,0,0,382,82.7m126-35V147h-9.2V134.5a39,39,0,0,1-13,10.6,34.21,34.21,0,0,1-15.7,3.6,34.92,34.92,0,0,1-25.9-11c-7.2-7.3-10.7-16.3-10.7-26.8a36.16,36.16,0,0,1,10.9-26.5,35.27,35.27,0,0,1,26.1-10.9,32.18,32.18,0,0,1,15.9,3.7c4.9,2.4,9,6.3,12.6,11.3V47.7ZM471.1,82.5a27.37,27.37,0,0,0-24.5,14.3,28.91,28.91,0,0,0,0,29A27.46,27.46,0,0,0,457,136.5a28.9,28.9,0,0,0,28.3,0,27.52,27.52,0,0,0,10.3-10.3,29.59,29.59,0,0,0,3.7-14.6c0-8.3-2.7-15.2-8.2-20.8a26.49,26.49,0,0,0-20-8.3m56.6-7.1h9.2v33.5c0,8.2.4,13.7,1.3,16.7a19.23,19.23,0,0,0,7.6,10.5,22.68,22.68,0,0,0,13.3,3.9,24,24,0,0,0,13.2-3.7,18.53,18.53,0,0,0,7.3-9.9c1-2.7,1.4-8.6,1.4-17.5V75.4h9.5v35.1c0,9.9-1.1,17.3-3.4,22.3a25.7,25.7,0,0,1-10.4,11.7c-4.6,2.9-10.4,4.3-17.5,4.3-6.9,0-12.7-1.4-17.5-4.3a25.15,25.15,0,0,1-10.4-11.9c-2.3-5-3.4-12.6-3.4-22.8V75.4Zm83.2,0h9.2V87.7c3.3-4.4,6.6-7.9,10-10a28.17,28.17,0,0,1,14.6-4,23.07,23.07,0,0,1,9.9,2,21.78,21.78,0,0,1,7.7,5.4,29.09,29.09,0,0,1,5.2,9.7A34.54,34.54,0,0,1,679,77.9a27.46,27.46,0,0,1,14.9-4.3,22.89,22.89,0,0,1,13.2,3.7,22.07,22.07,0,0,1,8.4,10.5c1.9,4.4,2.7,11.2,2.7,20.2v39.1h-9.5V107.9c0-7.6-.6-12.9-1.6-15.8a14.4,14.4,0,0,0-5.7-7,16.74,16.74,0,0,0-9.4-2.6,20.55,20.55,0,0,0-12.3,4,22.53,22.53,0,0,0-8,10.4c-1.7,4.4-2.6,11.7-2.6,22V147h-9.2V110.2c0-8.6-.6-14.5-1.7-17.6a14.19,14.19,0,0,0-5.6-7.4,16.16,16.16,0,0,0-9.6-2.7,20.16,20.16,0,0,0-11.9,3.9,24.09,24.09,0,0,0-8.3,10.3c-1.7,4.4-2.7,11-2.7,20V147h-9.2V75.4Z"/><rect class="cls-3" width="792" height="218"/></g></svg>